<?xml version="1.0" encoding="UTF-8" standalone="no"?>
<!DOCTYPE svg PUBLIC "-//W3C//DTD SVG 1.1//EN"
 "http://www.w3.org/Graphics/SVG/1.1/DTD/svg11.dtd">
<!-- Generated by graphviz version 2.24.0 (20090616.2323)
 -->
<!-- Title: G Pages: 1 -->
<svg width="426pt" height="165pt"
 viewBox="0.00 0.00 426.00 165.00" xmlns="http://www.w3.org/2000/svg" xmlns:xlink="http://www.w3.org/1999/xlink">
<g id="graph1" class="graph" transform="scale(1 1) rotate(0) translate(4 161)">
<title>G</title>
<polygon fill="white" stroke="white" points="-4,5 -4,-161 423,-161 423,5 -4,5"/>
<g id="graph2" class="cluster"><title>cluster_CubicMushroom</title>
<polyline fill="none" stroke="gray" points="320,-8 398,-8 "/>
<path fill="none" stroke="gray" d="M398,-8C404,-8 410,-14 410,-20"/>
<polyline fill="none" stroke="gray" points="410,-20 410,-137 "/>
<path fill="none" stroke="gray" d="M410,-137C410,-143 404,-149 398,-149"/>
<polyline fill="none" stroke="gray" points="398,-149 320,-149 "/>
<path fill="none" stroke="gray" d="M320,-149C314,-149 308,-143 308,-137"/>
<polyline fill="none" stroke="gray" points="308,-137 308,-20 "/>
<path fill="none" stroke="gray" d="M308,-20C308,-14 314,-8 320,-8"/>
<text text-anchor="middle" x="359" y="-135.1" font-family="Times,serif" font-size="11.00" fill="gray">CubicMushroom</text>
</g>
<g id="graph3" class="cluster"><title>cluster_CubicMushroom\WP</title>
<polyline fill="none" stroke="gray" points="328,-16 390,-16 "/>
<path fill="none" stroke="gray" d="M390,-16C396,-16 402,-22 402,-28"/>
<polyline fill="none" stroke="gray" points="402,-28 402,-110 "/>
<path fill="none" stroke="gray" d="M402,-110C402,-116 396,-122 390,-122"/>
<polyline fill="none" stroke="gray" points="390,-122 328,-122 "/>
<path fill="none" stroke="gray" d="M328,-122C322,-122 316,-116 316,-110"/>
<polyline fill="none" stroke="gray" points="316,-110 316,-28 "/>
<path fill="none" stroke="gray" d="M316,-28C316,-22 322,-16 328,-16"/>
<text text-anchor="middle" x="359" y="-108.1" font-family="Times,serif" font-size="11.00" fill="gray">WP</text>
</g>
<g id="graph4" class="cluster"><title>cluster_CubicMushroom\WP\Themes</title>
<polyline fill="none" stroke="gray" points="336,-24 382,-24 "/>
<path fill="none" stroke="gray" d="M382,-24C388,-24 394,-30 394,-36"/>
<polyline fill="none" stroke="gray" points="394,-36 394,-83 "/>
<path fill="none" stroke="gray" d="M394,-83C394,-89 388,-95 382,-95"/>
<polyline fill="none" stroke="gray" points="382,-95 336,-95 "/>
<path fill="none" stroke="gray" d="M336,-95C330,-95 324,-89 324,-83"/>
<polyline fill="none" stroke="gray" points="324,-83 324,-36 "/>
<path fill="none" stroke="gray" d="M324,-36C324,-30 330,-24 336,-24"/>
<text text-anchor="middle" x="359" y="-81.1" font-family="Times,serif" font-size="11.00" fill="gray">Themes</text>
</g>
<!-- \\CubicMushroom\\WP\\Themes\\Theme -->
<g id="node4" class="node"><title>\\CubicMushroom\\WP\\Themes\\Theme</title>
<a xlink:href="db_src_CubicMushroom_WP_Themes_Theme.html" xlink:title="Theme" target="_parent">
<polygon fill="none" stroke="black" points="386,-68 332,-68 332,-32 386,-32 386,-68"/>
<text text-anchor="middle" x="359" y="-46.1" font-family="Courier,monospace" font-size="11.00">Theme</text>
</a>
</g>
<!-- \\CubicMushroom\\WP\\Core\\Base -->
<g id="node7" class="node"><title>\\CubicMushroom\\WP\\Core\\Base</title>
<ellipse fill="none" stroke="black" cx="130" cy="-50" rx="128.994" ry="18"/>
<text text-anchor="middle" x="130" y="-44.4" font-family="Times,serif" font-size="14.00" fill="gray">\CubicMushroom\WP\Core\Base</text>
</g>
<!-- \\CubicMushroom\\WP\\Themes\\Theme&#45;&gt;\\CubicMushroom\\WP\\Core\\Base -->
<g id="edge6" class="edge"><title>\\CubicMushroom\\WP\\Themes\\Theme&#45;&gt;\\CubicMushroom\\WP\\Core\\Base</title>
<path fill="none" stroke="black" d="M331.831,-50C315.556,-50 293.484,-50 269.898,-50"/>
<polygon fill="none" stroke="black" points="269.71,-46.5001 259.71,-50 269.71,-53.5001 269.71,-46.5001"/>
</g>
</g>
</svg>
